<?xml version="1.0"?><svg version="1.1" id="Layer_1" xmlns="http://www.w3.org/2000/svg" x="0" y="0" viewBox="0 0 100 100" xml:space="preserve"><path d="M30.474 20.457c11.179-8.735 30.487-10.268 37.75 4.339 3.393 6.825 2.886 15.186-.303 22.109-3.19 6.922-8.822 12.501-15.182 16.701-1.053.695-2.166 1.394-2.827 2.469s-.699 2.656.277 3.456c.375.308.847.464 1.294.654 3.818 1.624 5.961 6.397 4.638 10.33-3.045 9.046-16.481 5.067-22.756 2.728-7.205-2.685-14.112-6.778-18.711-12.94-12.27-16.439 2.081-39.11 15.82-49.846z" stroke-width="3.5" stroke-miterlimit="10" fill="#e0e0e0" stroke="#333"/><g><path d="M54.796 59.728l-6.351-6.351a2.421 2.421 0 0 1 0-3.425l32.558-30.981c.946-.946 2.355-1.069 3.148-.276l5.327 5.327c.793.793.67 2.203-.276 3.148L58.22 59.728a2.42 2.42 0 0 1-3.424 0z" stroke-width="3.5" stroke="#333" fill="#f0af6b" stroke-miterlimit="10"/><path d="M51.605 68.269c-4.148 4.716-14.356 3.284-14.761 8.072-6.016-4.339-3.355-11.56 1.665-17.519 4.44-5.27 8.514-5.624 12.13-3.015 3.617 2.609 5.517 7.287.966 12.462z" stroke-miterlimit="10" fill="#65503a" stroke="#333" stroke-linejoin="round" stroke-width="3.5"/><path fill="none" stroke-linejoin="round" stroke="#333" stroke-width="3.5" stroke-linecap="round" stroke-miterlimit="10" d="M81.874 26.298L63.969 44.204"/><path d="M54.915 43.795l-6.471 6.158a2.421 2.421 0 0 0 0 3.425l6.351 6.351a2.421 2.421 0 0 0 3.425 0l6.158-6.471-9.463-9.463z" fill="#f3e4c7" stroke="#333" stroke-width="3.5" stroke-miterlimit="10"/></g><circle transform="rotate(-4.863 49.127 27.433)" cx="49.127" cy="27.436" stroke="#333" stroke-width="3.5" fill="#ea7c60" stroke-miterlimit="10" r="5.239"/><circle transform="rotate(-4.863 35.152 38.264)" cx="35.151" cy="38.265" stroke="#333" stroke-width="3.5" fill="#a8b980" stroke-miterlimit="10" r="5.239"/><circle transform="rotate(-4.863 24.082 52.35)" cx="24.081" cy="52.352" fill="#76a0b7" stroke-miterlimit="10" stroke="#333" stroke-width="3.5" r="5.239"/><metadata xmlns:d="https://loading.io/stock/">
<d:name>illustrator</d:name>
<d:tags>illustrator,sketch,draw,paint,art,artwork,visual design,aesthetic,artist,comic,illustration</d:tags>
<d:license>by</d:license>
<d:slug>301zqt</d:slug>
</metadata></svg>