<?xml version="1.0"?>
<svg version="1.1" id="圖層_1" xmlns="http://www.w3.org/2000/svg" x="0" y="0" viewBox="0 0 100 100" xml:space="preserve"><path d="M82.3 89H17.7C14 89 11 86 11 82.3V17.7c0-3.7 3-6.7 6.7-6.7h64.6c3.7 0 6.7 3 6.7 6.7v64.6c0 3.7-3 6.7-6.7 6.7z" fill="#e0e0e0" stroke="#333" stroke-width="3.9" stroke-linecap="round"/><g><path fill="#eba523" stroke="#333" stroke-width="2.68597314" stroke-linecap="round" stroke-linejoin="round" d="M26.087 61.52L57.41 30.195l12.374 12.374-31.324 31.325z"/><path d="M69.8 42.6l6.3-6.3c1.4-1.4 1.4-3.8 0-5.2L68.9 24c-1.4-1.4-3.8-1.4-5.2 0l-6.3 6.3 12.4 12.3z" fill="#e0e0e0" stroke="#333" stroke-width="2.686" stroke-linecap="round"/><path fill="#f5e6c8" stroke="#333" stroke-width="2.686" stroke-linecap="round" stroke-linejoin="round" d="M24.4 69.9l5.7 5.7 8.3-1.7-6.1-6.2-6.2-6.1z"/><path fill="#333" stroke="#333" stroke-width="2.686" stroke-linecap="round" stroke-linejoin="round" d="M22.9 77.1l7.2-1.5-5.7-5.7z"/><path fill="none" stroke="#333" stroke-width="2.686" stroke-linecap="round" stroke-linejoin="round" d="M36.9 63.1l21.8-21.8"/></g><metadata xmlns:d="https://loading.io/stock/"><d:name>pencil</d:name><d:tags>draw,sketch,write,paint,artist,edit,compose,pencil,web application</d:tags><d:license>pro</d:license><d:slug>gt6okx</d:slug></metadata></svg>